HIERARCHY
ROOT Hips
{
    OFFSET 0.0 0.0 0.0
    CHANNELS 6 Xposition Yposition Zposition Zrotation Xrotation Yrotation
    JOINT LHipJoint
    {
        OFFSET 0.1 0.0 0.0
        CHANNELS 3 Zrotation Xrotation Yrotation
        JOINT LeftHip
        {
            OFFSET 0.10700888931751251 0.0 0.0
            CHANNELS 3 Zrotation Xrotation Yrotation
            JOINT LeftKnee
            {
                OFFSET 0.0 0.0 -0.2152610421180725
                CHANNELS 3 Zrotation Xrotation Yrotation
                JOINT LeftAnkle
                {
                    OFFSET 0.0 0.0 -0.4577053189277649
                    CHANNELS 3 Zrotation Xrotation Yrotation
                    End Site
                    {
                        OFFSET 0.0 -0.1 0.0
                    }
                }
            }
        }
    }
    JOINT lowerback
    {
        OFFSET 0.0 0.0 0.1
        CHANNELS 3 Zrotation Xrotation Yrotation
        JOINT Chest
        {
            OFFSET 0.0 0.0 0.2673105299472809
            CHANNELS 3 Zrotation Xrotation Yrotation
            JOINT Chest2
            {
                OFFSET 0.0 0.0 0.25164544582366943
                CHANNELS 3 Zrotation Xrotation Yrotation
                JOINT LeftCollar
                {
                    OFFSET 0.1 0.0 0.0
                    CHANNELS 3 Zrotation Xrotation Yrotation
                    JOINT LeftShoulder
                    {
                        OFFSET 0.170615553855896 0.0 0.0
                        CHANNELS 3 Zrotation Xrotation Yrotation
                        JOINT LeftElbow
                        {
                            OFFSET 0.34049558639526367 0.0 0.0
                            CHANNELS 3 Zrotation Xrotation Yrotation
                            JOINT LeftWrist
                            {
                                OFFSET 0.26492470502853394 0.0 0.0
                                CHANNELS 3 Zrotation Xrotation Yrotation
                                End Site
                                {
                                    OFFSET 0.1 0.0 0.0
                                }
                            }
                        }
                    }
                }
                JOINT Neck
                {
                    OFFSET 0.0 0.0 0.1
                    CHANNELS 3 Zrotation Xrotation Yrotation
                    JOINT Head
                    {
                        OFFSET 0.0 0.0 0.2987827956676483
                        CHANNELS 3 Zrotation Xrotation Yrotation
                        End Site
                        {
                            OFFSET 0.0 0.0 0.17764617502689362
                        }
                    }
                }
                JOINT RightCollar
                {
                    OFFSET -0.1 0.0 0.0
                    CHANNELS 3 Zrotation Xrotation Yrotation
                    JOINT RightShoulder
                    {
                        OFFSET -0.170615553855896 0.0 0.0
                        CHANNELS 3 Zrotation Xrotation Yrotation
                        JOINT RightElbow
                        {
                            OFFSET -0.34049558639526367 0.0 0.0
                            CHANNELS 3 Zrotation Xrotation Yrotation
                            JOINT RightWrist
                            {
                                OFFSET -0.26492470502853394 0.0 0.0
                                CHANNELS 3 Zrotation Xrotation Yrotation
                                End Site
                                {
                                    OFFSET -0.1 0.0 0.0
                                }
                            }
                        }
                    }
                }
            }
        }
    }
    JOINT RHipJoint
    {
        OFFSET -0.1 0.0 0.0
        CHANNELS 3 Zrotation Xrotation Yrotation
        JOINT RightHip
        {
            OFFSET -0.10700888931751251 0.0 0.0
            CHANNELS 3 Zrotation Xrotation Yrotation
            JOINT RightKnee
            {
                OFFSET 0.0 0.0 -0.2152610421180725
                CHANNELS 3 Zrotation Xrotation Yrotation
                JOINT RightAnkle
                {
                    OFFSET 0.0 0.0 -0.4577053189277649
                    CHANNELS 3 Zrotation Xrotation Yrotation
                    End Site
                    {
                        OFFSET 0.0 -0.1 0.0
                    }
                }
            }
        }
    }
}
MOTION
Frames: 6
Frame Time: 0.06666666666666667
2.3805685486877337e-05 0.19346356391906738 -6.439683784265071e-05 -14.81865403660006 -2.0716430332455986 -12.722778941191509 0.0 0.0 -3.975693351829396e-16 151.3457934911626 33.82104146663796 -63.86683982104545 -174.47245503982407 -1.8001333527136005 -105.18499811373607 -2.2069531490250793e-32 -1.5902773407317584e-15 -1.5902773407317584e-15 0.0 0.0 -3.975693351829396e-16 5.872721099852156 8.189400938504848 -0.8630641140693465 5.981989694402169 1.3573675287700576e-07 -1.373973498974488e-07 0.0 0.0 1.124375776064251e-15 127.86024916349405 -13.372093735502265 -14.106983357166259 -14.324006966804422 -4.738691050488376e-07 -1.358820451574858e-06 -4.4139062980501586e-32 -3.1805546814635168e-15 -1.5902773407317584e-15 0.0 0.0 1.124375776064251e-15 81.98251337960126 -88.19424864555151 77.79667997224935 0.0 0.0 1.124375776064251e-15 -9.525178365005143 -84.55368063289791 112.17328543025977 64.61839163728567 1.2401903798607835e-07 -5.822752983461612e-06 3.1805546814635168e-15 -3.1805546814635168e-15 -7.951386703658791e-16 0.0 0.0 -3.975693351829396e-16 85.39669158274722 54.47655492934918 -87.02850648596595 177.60932968807876 -68.06686011975248 151.74727634234046 0.0 0.0 -3.1805546814635168e-15
2.2222910047275946e-05 0.1934535950422287 -5.904004501644522e-05 -11.181465216959577 -2.3690781542535646 -12.519474572397655 -1.5902773407317584e-15 -1.4483130040477084e-32 1.0436195048552165e-15 144.43376072629297 40.320951035072824 -61.41102097827012 -168.24797508765556 -4.0232242498143505 -105.71711639171255 -6.361109362927033e-15 0.0 0.0 -1.5902773407317584e-15 -1.4483130040477084e-32 1.0436195048552165e-15 4.912253413131495 7.155030606353457 -2.076993216716076 5.968424597699041 2.6973308945724183e-07 6.522167267426924e-08 -9.939233379573489e-17 1.2424041724466861e-17 4.767726011764157e-16 117.52303879521406 -50.416865556602396 -14.87061305673104 -39.00980930332396 -1.5766781484715985e-06 1.904089650438346e-07 6.3611093629270335e-15 6.3611093629270335e-15 2.385416011097637e-15 -9.939233379573489e-17 1.2424041724466861e-17 4.767726011764157e-16 94.44216889786092 -84.39893177913825 91.29469311841329 -9.939233379573489e-17 1.2424041724466861e-17 4.767726011764157e-16 6.4653279152728205 -82.86424775189288 132.70829275370664 62.11436863767975 2.1357937851064743e-06 -3.6081090241475844e-06 3.1805546814635168e-15 -6.620859447075238e-32 -2.3854160110976376e-15 -1.5902773407317584e-15 -1.4483130040477084e-32 1.0436195048552165e-15 80.61941447662552 55.315451287724194 -85.3570754812838 172.36222436733618 -66.77677746379044 145.77110530153624 3.1805546814635164e-15 3.1805546814635164e-15 -8.827812596100317e-32
2.1225045202299953e-05 0.19344916939735413 -5.43233472853899e-05 -9.198867337168064 -2.8635366070316732 -13.827437786207323 -1.4483130040477084e-32 -7.95138670365879e-16 -2.0872390097104326e-15 149.60436018971933 38.301255216723405 -66.52626153041969 -172.27007721846758 -2.7634399610609335 -102.57837615221942 3.1805546814635164e-15 0.0 0.0 -1.4483130040477084e-32 -7.95138670365879e-16 -2.0872390097104326e-15 5.134849520842737 7.99340030573903 -1.8104598141005939 3.868824075752785 -2.5752353314312585e-07 6.218767076743153e-07 1.987846675914698e-16 2.484808344893373e-17 1.6213374450429256e-15 121.628453988919 -59.146298527674126 -10.901404384419541 -80.06597782697165 1.4893074753342333e-06 -3.847827460060348e-06 0.0 0.0 3.1805546814635168e-15 1.987846675914698e-16 2.484808344893373e-17 1.6213374450429256e-15 99.54400155507366 -78.07748651997369 93.66259377536855 1.987846675914698e-16 2.484808344893373e-17 1.6213374450429256e-15 16.810765091539885 -81.09582334523131 144.56289468256972 61.161369902868174 1.8350624195305579e-06 -4.241745107052882e-06 -3.1805546814635168e-15 -1.9862578341225716e-31 7.156248033292914e-15 -1.4483130040477084e-32 -7.95138670365879e-16 -2.0872390097104326e-15 87.47991379289567 57.451727653267646 -92.69422790291483 170.52806175966373 -62.13455363454809 143.54659002057718 -4.689775441678294e-32 7.951386703658792e-16 6.7586786981099735e-15
2.1681018552044407e-05 0.1934514343738556 -6.114238931331784e-05 -14.143571698889657 -2.0816159671566266 -18.185690100050035 -2.069018577211012e-33 -3.975693351829397e-16 -5.963540027744096e-16 156.01316648163052 38.56607640031606 -79.29996808793283 -173.205610512274 -3.1031047851293767 -108.07567317255311 -3.1805546814635168e-15 1.3241718894150476e-31 -4.770832022195275e-15 -2.069018577211012e-33 -3.975693351829397e-16 -5.963540027744096e-16 3.9521706725299004 7.741272381092553 -0.9912040969130866 4.84953609029622 1.237803331552123e-07 2.3171365196312756e-07 0.0 0.0 -4.969616689786745e-16 134.35169511504986 -33.95769824901323 -27.392284344083187 -71.76437535129975 -2.400305531098828e-07 -6.063946261578652e-06 -6.3611093629270335e-15 -6.3611093629270335e-15 -3.531125038440127e-31 0.0 0.0 -4.969616689786745e-16 121.65577937378764 -73.9295033692364 112.44580031412868 0.0 0.0 -4.969616689786745e-16 -25.352212759067534 -83.45556289697814 103.82723714272 57.66656676987827 -1.935013187117436e-06 8.022252845164407e-07 0.0 -3.1805546814635168e-15 0.0 -2.069018577211012e-33 -3.975693351829397e-16 -5.963540027744096e-16 114.24862090839845 60.939777443156274 -101.93230321873314 -168.64737449932292 -49.88251264589222 168.46897189738618 0.0 0.0 -4.770832022195275e-15
2.2273459762800485e-05 0.19346025586128235 -6.820147973485291e-05 -19.934681842217955 -0.9483060345484706 -22.475040839749752 0.0 0.0 3.9756933518293955e-16 162.995738088532 31.968382702007588 -87.71473920779586 -177.5439085382429 -1.277751025266782 -112.89969085772512 0.0 0.0 1.5902773407317582e-15 0.0 0.0 3.9756933518293955e-16 4.79875145681114 10.197335244929743 2.195041677202708 5.116815208969909 5.951437565039979e-08 -2.1799764923528104e-07 1.1207183959892982e-33 -1.9878466759146977e-16 6.460501696722768e-16 163.53189569335163 -21.66311183367284 -39.77232136549677 -81.8708567053601 -1.0472066078042032e-06 7.390287503343843e-07 6.3611093629270335e-15 1.5902773407317584e-15 -8.827812596100317e-32 1.1207183959892982e-33 -1.9878466759146977e-16 6.460501696722768e-16 138.00738919008293 -72.5581493586383 128.04279098106252 1.1207183959892982e-33 -1.9878466759146977e-16 6.460501696722768e-16 -84.77339851810801 -78.1825998285113 46.43588486770839 55.84621339084405 -2.3438222037453992e-06 4.566131322648149e-06 -6.3611093629270335e-15 3.180554681463516e-15 9.54166404439055e-15 0.0 0.0 3.9756933518293955e-16 129.0684264300014 59.10727435582231 -102.13833181257081 -157.95260596035618 -42.07031916833814 -173.08362357586708 3.1805546814635168e-15 -2.648343778830095e-31 -9.54166404439055e-15
1.717528357403353e-05 0.1934712827205658 -7.452856516465545e-05 -17.42216863350078 -1.9657046943799452 -23.593165310110148 -6.896728590703373e-33 -7.951386703658792e-16 -9.93923337957349e-16 163.51619115270535 30.981416474900286 -88.2831715214512 -178.40086030316886 -0.8477261814765764 -110.54397894589839 3.1805546814635168e-15 0.0 0.0 -6.896728590703373e-33 -7.951386703658792e-16 -9.93923337957349e-16 6.016569330532607 12.604240502022416 3.271278846151623 0.6957384856206639 2.0515325928638435e-07 -7.955471968322009e-09 8.620910738379216e-33 -7.951386703658792e-16 1.2424041724466863e-15 166.23502457923396 -20.821252958500327 -37.17985252696507 -82.35485200381862 6.169690006107425e-07 -4.1141367771802165e-06 8.827812596100317e-32 -3.180554681463516e-15 3.180554681463516e-15 8.620910738379216e-33 -7.951386703658792e-16 1.2424041724466863e-15 151.03912488762623 -71.28301515343192 142.2321659403848 8.620910738379216e-33 -7.951386703658792e-16 1.2424041724466863e-15 -76.52675605999515 -80.90382788245985 52.03769471216071 56.22977152041697 1.3054588767538804e-06 -1.8070384758904029e-06 0.0 0.0 1.5902773407317584e-15 -6.896728590703373e-33 -7.951386703658792e-16 -9.93923337957349e-16 133.75653901389234 57.05977105043275 -105.88340323665327 -160.25079885790106 -38.85888513769038 -172.4873129687297 1.5902773407317584e-15 1.5902773407317584e-15 -2.3854160110976376e-15
